<?xml version="1.0" standalone="no"?>
<!DOCTYPE svg PUBLIC "-//W3C//DTD SVG 20010904//EN"
 "http://www.w3.org/TR/2001/REC-SVG-20010904/DTD/svg10.dtd">
<svg version="1.0" xmlns="http://www.w3.org/2000/svg"
 width="256.000000pt" height="256.000000pt" viewBox="0 0 256.000000 256.000000"
 preserveAspectRatio="xMidYMid meet">
<metadata>
Created by potrace 1.11, written by Peter Selinger 2001-2013
</metadata>
<g transform="translate(0.000000,256.000000) scale(0.100000,-0.100000)"
fill="#000000" stroke="none">
<path d="M50 1280 l0 -1280 1103 1 1102 0 -66 27 c-63 26 -136 70 -96 58 10
-3 15 -2 12 4 -3 6 -15 10 -26 10 -10 0 -20 6 -21 13 -4 35 -3 43 6 49 18 12
6 89 -25 151 -16 34 -34 66 -40 72 -5 5 -9 17 -9 26 0 10 -6 20 -12 22 -7 3
-8 6 -2 6 11 1 35 -32 145 -194 75 -111 139 -185 158 -185 7 0 9 5 5 13 -9 14
17 -5 60 -45 16 -16 40 -28 52 -28 13 0 24 2 24 4 0 2 -24 19 -52 38 -77 51
-191 165 -223 223 -28 51 -78 130 -198 310 -115 174 -120 180 -152 182 -29 3
-29 2 -7 -9 19 -9 22 -18 19 -47 -2 -21 -9 -35 -15 -33 -16 3 -15 -15 0 -20 8
-3 9 -16 2 -48 -9 -42 -10 -43 -27 -25 -17 16 -17 19 -3 27 24 13 19 26 -12
33 -23 5 -30 14 -41 51 l-14 46 59 52 58 53 -22 19 c-20 17 -47 89 -67 178 -4
21 -9 26 -14 17 -6 -9 -11 -10 -15 -2 -8 12 -27 15 -24 4 1 -5 -1 -18 -6 -30
l-7 -23 -23 28 c-13 15 -25 32 -26 37 -1 6 -6 20 -11 33 -7 19 -4 24 16 34 20
9 28 8 42 -5 17 -15 22 -17 42 -17 5 0 12 -10 14 -23 2 -12 5 4 6 37 1 48 -2
57 -14 52 -11 -4 -15 2 -15 28 0 20 -8 40 -19 50 -11 10 -17 25 -14 37 9 34
-14 20 -50 -30 -44 -61 -63 -97 -72 -138 -6 -32 -6 -33 22 -27 24 5 28 2 30
-18 1 -13 4 -36 6 -53 5 -44 -2 -49 -29 -23 -49 48 -64 57 -79 51 -9 -3 -14
-12 -11 -19 10 -26 -19 -14 -44 19 -39 51 -114 120 -122 112 -2 -2 -4 4 -4 15
0 10 3 17 7 14 11 -6 19 24 19 70 0 81 -80 264 -122 278 -18 6 -2 24 37 42 29
14 34 20 25 35 -5 11 -30 31 -55 45 -46 28 -55 43 -31 52 25 10 106 -45 106
-71 0 -7 18 -43 40 -81 21 -38 46 -96 55 -129 17 -67 20 -185 5 -185 -5 0 -10
-7 -10 -15 0 -8 -4 -15 -8 -15 -5 0 -14 -11 -20 -24 -8 -19 -8 -27 2 -35 24
-20 57 42 63 117 9 106 -11 205 -57 285 -22 38 -40 71 -40 74 0 3 20 -13 45
-36 41 -38 63 -52 51 -33 -2 4 13 17 34 29 38 20 39 20 45 2 10 -30 23 -22 45
27 24 57 26 139 4 215 -20 69 -39 99 -64 99 -11 0 -20 5 -20 10 0 6 -5 10 -11
10 -7 0 -17 7 -23 15 -6 8 -22 16 -36 17 -19 2 -24 -1 -22 -14 2 -11 -3 -18
-13 -18 -19 0 -19 -9 1 -31 15 -17 15 -18 -4 -16 -11 0 -19 4 -16 8 2 4 0 10
-6 14 -6 4 -8 10 -5 15 3 4 -4 10 -15 13 -11 3 -20 13 -21 24 0 10 -26 40 -58
68 l-58 50 31 47 c41 63 65 69 191 52 100 -14 106 -17 164 -68 23 -21 35 -27
38 -18 3 7 11 19 19 26 22 23 17 32 -28 46 -24 8 -59 22 -78 32 -32 16 -33 18
-10 18 23 0 89 -18 132 -35 12 -5 26 9 58 55 22 33 45 58 50 55 4 -3 2 -26 -6
-52 -8 -27 -13 -58 -11 -70 2 -12 -1 -24 -7 -27 -6 -2 -3 -5 6 -5 9 -1 19 -5
22 -10 3 -4 -5 -6 -18 -4 -19 4 -24 0 -29 -24 -3 -15 -9 -40 -13 -56 -6 -24
-3 -28 25 -33 17 -4 36 -13 42 -20 14 -18 11 -17 -41 1 l-42 15 6 -31 c3 -17
6 -38 6 -45 0 -7 12 -20 28 -28 15 -8 26 -17 25 -20 -6 -12 -3 -29 3 -23 4 3
16 0 27 -8 16 -11 24 -12 36 -2 9 8 12 8 8 1 -4 -7 1 -14 11 -18 76 -26 102
-33 102 -25 0 5 15 9 33 9 l32 1 -30 16 c-32 17 -76 59 -69 66 3 2 -21 18 -52
34 -81 40 -83 58 -8 49 33 -4 68 -10 79 -13 20 -5 20 -5 1 10 -18 13 -16 14
22 12 23 -1 42 0 42 2 0 11 -33 35 -71 52 -37 17 -39 20 -19 26 12 4 20 9 17
11 -2 3 -15 1 -28 -4 -36 -14 -59 13 -47 55 l8 32 108 -45 c110 -46 189 -90
277 -153 28 -20 62 -42 77 -50 24 -12 37 -34 68 -118 7 -18 16 -30 21 -27 5 3
10 2 10 -3 7 -40 3 -75 -13 -111 -24 -58 -77 -134 -89 -127 -5 3 -6 -1 -3 -9
3 -9 1 -16 -5 -16 -18 0 -214 134 -202 138 11 4 81 -35 92 -51 4 -5 11 -7 16
-4 5 3 15 1 23 -5 12 -8 11 -9 -5 -4 -16 5 -16 3 5 -14 30 -23 40 -25 40 -6 0
14 -63 59 -88 62 -14 2 -66 54 -54 54 22 0 -48 33 -133 63 -55 19 -125 44
-155 56 -30 11 -70 23 -88 26 -29 5 -33 3 -28 -12 3 -10 7 -51 8 -90 3 -73 3
-73 31 -73 58 0 75 -128 27 -206 -12 -18 -19 -38 -15 -44 9 -15 -2 -12 -19 6
-17 17 -22 39 -7 29 15 -9 41 36 41 71 0 50 -12 95 -26 101 -36 14 -73 -94
-43 -124 16 -16 2 -48 -26 -61 -44 -20 -30 -82 19 -82 24 0 27 -3 16 -10 -8
-5 -25 -10 -37 -10 -13 0 -23 -4 -23 -10 0 -5 5 -10 10 -10 6 0 22 -11 35 -24
18 -18 25 -21 29 -10 3 8 1 14 -5 14 -6 0 -3 7 5 16 9 8 16 24 16 35 0 10 4
19 9 19 6 0 8 -28 5 -67 l-6 -68 38 -29 c25 -20 35 -24 31 -13 -3 9 -2 19 3
22 6 4 10 22 10 41 0 30 2 33 18 25 9 -5 28 -20 42 -33 64 -60 120 -85 120
-54 0 8 -22 41 -50 73 -27 32 -50 61 -50 66 0 11 113 6 128 -6 8 -6 12 -6 12
1 0 7 10 7 28 1 15 -4 39 -11 54 -14 22 -4 26 -9 22 -30 -2 -14 -14 -42 -25
-62 -17 -30 -21 -56 -22 -128 -1 -98 9 -270 16 -282 2 -4 14 -39 26 -77 48
-150 172 -356 336 -554 l35 -43 0 878 c-1 789 -2 876 -16 858 -8 -11 -22 -19
-30 -17 -12 2 -14 -2 -9 -17 4 -14 1 -23 -9 -27 -9 -3 -16 -12 -16 -20 0 -27
-28 -2 -34 30 -9 49 1 68 27 54 22 -11 22 -10 -1 14 -12 13 -22 34 -22 46 0
25 3 26 31 12 15 -9 19 -7 19 5 0 18 23 45 39 45 6 0 8 6 5 14 -3 8 -1 17 5
20 7 5 11 82 11 218 0 180 -2 209 -14 192 -7 -10 -19 -36 -27 -57 -20 -56 -33
-63 -68 -38 -16 12 -34 20 -40 19 -11 -4 -91 44 -91 54 0 4 7 4 17 1 11 -4 14
-3 9 6 -4 6 -16 9 -27 6 -22 -7 -52 12 -43 26 3 5 -2 9 -10 9 -9 0 -16 6 -16
14 0 7 -23 23 -50 35 -28 12 -50 26 -50 31 0 7 -370 10 -1030 10 l-1030 0 0
-1280z m1442 1099 c122 -45 158 -61 158 -71 0 -4 -5 -8 -10 -8 -22 0 -219 82
-231 96 -16 19 -13 18 83 -17z m-697 -169 c37 -41 81 -88 97 -103 29 -29 31
-62 4 -79 -14 -9 -47 31 -43 53 2 19 -90 124 -95 107 -2 -6 -10 4 -17 23 -7
19 -20 47 -28 63 -24 45 3 23 82 -64z m-44 -97 c40 -104 41 -110 31 -163 -6
-30 -14 -91 -17 -135 -10 -132 -12 -142 -37 -141 -24 1 -45 -32 -59 -93 -9
-39 7 -157 22 -167 5 -3 9 -16 9 -30 0 -14 5 -34 10 -45 6 -10 8 -19 4 -19 -8
0 -43 43 -44 53 0 18 -43 96 -50 92 -14 -8 -18 34 -5 45 7 6 11 19 8 29 -3 11
2 21 11 24 10 4 16 19 16 41 0 19 5 38 10 41 6 3 10 15 10 27 0 20 39 79 41
62 3 -23 18 77 18 121 1 36 -2 46 -9 35 -7 -11 -10 -2 -10 33 0 26 5 47 10 47
14 0 12 36 -3 52 -8 8 -12 38 -12 78 1 36 -3 68 -9 72 -7 5 -6 8 2 8 9 0 11 7
7 20 -3 11 -4 20 -1 20 2 0 23 -48 47 -107z m1694 -131 c-8 -8 -25 10 -19 20
4 6 9 5 15 -3 4 -7 6 -15 4 -17z m-470 -272 c13 -6 15 -9 5 -9 -8 0 -22 4 -30
9 -18 12 -2 12 25 0z m65 -25 c14 -8 21 -14 15 -14 -5 0 -21 6 -35 14 -14 8
-20 14 -15 14 6 0 21 -6 35 -14z m-66 -15 c37 -12 64 -25 61 -30 -3 -6 1 -7 9
-4 8 3 57 -22 115 -61 91 -60 122 -85 107 -85 -14 0 -76 35 -76 42 0 5 -4 6
-10 3 -5 -3 -10 -2 -10 4 0 6 -7 7 -17 4 -11 -4 -14 -3 -9 5 7 11 -6 17 -27
13 -5 -1 -5 3 -2 9 4 7 1 10 -6 9 -22 -5 -70 11 -64 20 3 5 -4 7 -15 4 -12 -3
-20 0 -20 7 0 7 -8 9 -19 5 -12 -4 -21 0 -25 11 -5 13 -1 15 20 11 30 -5 20 8
-15 18 -16 5 -21 4 -17 -4 4 -6 1 -11 -8 -11 -8 0 -18 5 -21 10 -9 14 -27 1
-19 -13 4 -7 3 -8 -1 -4 -11 9 -16 37 -7 36 20 -3 25 2 12 11 -22 14 -9 12 64
-10z m266 -80 c0 -5 -2 -10 -4 -10 -3 0 -8 5 -11 10 -3 6 -1 10 4 10 6 0 11
-4 11 -10z m-1605 -150 c3 -5 1 -10 -4 -10 -6 0 -11 5 -11 10 0 6 2 10 4 10 3
0 8 -4 11 -10z m1530 -41 c43 -11 52 -26 28 -50 -15 -15 -76 -3 -100 19 -10 9
-14 14 -9 10 19 -15 34 -8 29 12 -6 23 -5 23 52 9z m-1361 -112 c7 -7 11 -18
8 -26 -3 -8 0 -11 6 -8 5 4 16 -8 23 -26 14 -34 67 -118 81 -128 5 -3 12 -20
17 -37 9 -30 8 -31 -10 -22 -13 7 -19 7 -19 0 0 -5 7 -10 15 -10 18 0 55 -39
55 -58 0 -15 -50 -8 -82 11 -13 9 -21 7 -36 -6 -17 -16 -22 -16 -47 -3 -20 10
-34 12 -46 5 -23 -12 -29 -11 -29 1 0 6 -22 58 -49 115 -36 75 -55 105 -68
106 -10 0 -13 3 -5 6 6 2 12 12 12 21 0 10 13 -3 31 -28 46 -69 96 -173 92
-195 -1 -11 0 -14 3 -7 3 7 18 18 33 24 14 6 21 12 15 15 -7 2 -9 13 -6 25 3
13 1 19 -5 15 -6 -4 -13 2 -16 14 -4 16 -3 18 8 9 10 -9 15 -4 20 21 4 18 3
35 -4 42 -16 16 -14 27 5 27 23 0 9 39 -27 73 -16 15 -29 30 -29 33 0 9 42 3
54 -9z m-80 -26 c11 -12 14 -21 7 -26 -16 -9 -33 5 -27 22 4 11 2 13 -9 9 -8
-3 -15 -1 -15 4 0 17 26 11 44 -9z m-107 3 c-3 -3 -12 -4 -19 -1 -8 3 -5 6 6
6 11 1 17 -2 13 -5z m493 -126 c-4 -18 -20 -77 -34 -131 -26 -91 -27 -105 -18
-188 6 -59 6 -105 0 -132 -6 -23 -11 -51 -12 -62 0 -11 -9 -21 -18 -23 -23 -4
-23 17 -2 89 12 40 15 75 10 133 -6 85 0 125 41 259 26 83 49 122 33 55z m163
-19 c-15 -10 -37 -19 -48 -18 -14 0 -16 2 -5 6 8 3 26 14 39 24 13 10 28 16
33 13 6 -4 -3 -15 -19 -25z m110 -78 c20 -26 37 -54 37 -62 0 -8 -11 -33 -25
-56 -25 -45 -23 -52 9 -28 20 15 36 12 36 -8 0 -14 -85 -61 -113 -63 -15 -1
-17 3 -12 20 4 11 8 32 10 46 4 36 3 34 27 60 l22 23 -30 -8 c-77 -20 -114 -3
-99 45 7 23 70 80 88 80 7 0 30 -22 50 -49z m273 -88 c-20 -37 -24 -41 -19
-18 6 28 34 77 41 70 2 -2 -8 -25 -22 -52z m-736 -55 c-1 -40 -2 -42 -15 -24
-16 21 -20 48 -8 59 15 16 23 4 23 -35z m573 -143 c33 -32 34 -39 2 -77 -14
-16 -25 -23 -25 -16 0 8 -9 31 -20 53 -11 22 -20 45 -20 52 0 21 33 15 63 -12z
m-254 -60 c18 -17 22 -29 17 -49 -8 -33 -30 -25 -47 17 -7 18 -19 40 -28 51
-15 18 -15 18 9 11 14 -4 36 -17 49 -30z m426 -85 c0 -7 -6 -15 -12 -17 -8 -3
-13 4 -13 17 0 13 5 20 13 18 6 -3 12 -11 12 -18z m68 -71 c-6 -32 -7 -33 -13
-9 -8 31 -1 65 11 53 5 -5 6 -25 2 -44z m-573 11 c12 -8 11 -10 -5 -9 -11 1
-31 5 -45 9 -24 8 -24 8 5 9 17 0 37 -4 45 -9z m628 -65 c3 -68 -8 -80 -36
-42 -17 22 -32 13 -32 -19 0 -13 -4 -24 -10 -24 -5 0 -10 8 -10 19 0 10 -2 40
-5 67 -4 42 -4 45 6 22 13 -34 35 -27 44 13 4 18 13 29 23 29 14 0 18 -12 20
-65z m-105 -138 c2 -28 -1 -54 -8 -64 -11 -14 -13 -4 -14 60 -1 42 -2 81 -2
85 -1 4 0 12 1 17 3 17 18 -47 23 -98z m62 73 c3 -5 1 -10 -4 -10 -6 0 -11 5
-11 10 0 6 2 10 4 10 3 0 8 -4 11 -10z m46 -107 c1 -54 2 -109 2 -123 1 -23
-2 -24 -48 -21 -49 3 -75 14 -75 32 0 5 11 9 25 9 24 0 25 0 22 84 -3 80 -3
84 22 99 47 30 51 25 52 -80z m-570 -103 l39 -65 -27 -7 c-33 -9 -37 -4 -64
85 -23 73 -51 115 -57 84 -2 -9 -8 -17 -13 -17 -5 0 -3 13 6 30 8 16 15 37 15
47 0 10 15 -7 32 -37 17 -30 48 -84 69 -120z m472 22 c-22 -5 -27 5 -12 21 12
13 15 13 20 -2 4 -10 1 -17 -8 -19z"/>
<path d="M2184 2545 c24 -18 73 -20 79 -2 4 10 7 10 18 0 15 -15 95 -17 104
-3 3 5 -13 9 -37 9 -24 0 -74 3 -113 6 -64 5 -68 4 -51 -10z"/>
<path d="M1830 2160 c0 -5 5 -10 11 -10 5 0 7 5 4 10 -3 6 -8 10 -11 10 -2 0
-4 -4 -4 -10z"/>
<path d="M1345 2030 c-3 -5 1 -10 10 -10 9 0 13 5 10 10 -3 6 -8 10 -10 10 -2
0 -7 -4 -10 -10z"/>
<path d="M1950 1810 c20 -13 33 -13 25 0 -3 6 -14 10 -23 10 -15 0 -15 -2 -2
-10z"/>
<path d="M1460 1575 c-7 -9 -8 -15 -2 -15 5 0 12 7 16 15 3 8 4 15 2 15 -2 0
-9 -7 -16 -15z"/>
<path d="M1700 1250 c0 -5 5 -10 10 -10 6 0 10 5 10 10 0 6 -4 10 -10 10 -5 0
-10 -4 -10 -10z"/>
<path d="M1700 1214 c0 -14 3 -14 15 -4 8 7 15 14 15 16 0 2 -7 4 -15 4 -8 0
-15 -7 -15 -16z"/>
<path d="M1740 1130 c0 -25 5 -40 12 -40 7 0 28 -16 48 -35 36 -35 36 -35 55
-15 17 19 17 20 0 20 -19 0 -31 12 -71 73 -31 48 -44 47 -44 -3z"/>
<path d="M1752 1072 c-12 -4 7 -62 30 -90 10 -12 14 -11 25 4 7 10 13 21 13
24 0 14 -57 66 -68 62z"/>
<path d="M1940 1055 c-6 -8 -8 -20 -4 -26 5 -9 11 -7 21 6 23 33 9 51 -17 20z"/>
<path d="M1842 894 c-24 -49 -25 -57 -12 -67 9 -7 29 -32 46 -57 181 -269 214
-308 214 -249 0 10 5 19 10 19 27 0 0 60 -90 205 -24 39 -54 84 -67 101 -13
17 -28 45 -34 62 -18 51 -36 48 -67 -14z"/>
<path d="M1770 720 c0 -5 7 -10 15 -10 8 0 15 5 15 10 0 6 -7 10 -15 10 -8 0
-15 -4 -15 -10z"/>
<path d="M2090 478 c0 -9 9 -26 20 -39 l20 -24 -12 30 c-15 39 -28 54 -28 33z"/>
</g>
</svg>
